<?xml version="1.0" encoding="UTF-8"?>
<svg version="1.1" xmlns="http://www.w3.org/2000/svg" width="541" height="461">
<path d="M0 0 C10.89 0 21.78 0 33 0 C33.33 29.04 33.66 58.08 34 88 C36.97 85.36 39.94 82.72 43 80 C44.381875 78.845 45.76375 77.69 47.1875 76.5 C50.63435785 73.52097914 53.21862405 70.26476292 55.7734375 66.50390625 C56.17820313 66.00761719 56.58296875 65.51132813 57 65 C57.66 65 58.32 65 59 65 C59.66 63.35 60.32 61.7 61 60 C61.66 60 62.32 60 63 60 C63.20625 59.236875 63.4125 58.47375 63.625 57.6875 C65.53904789 52.55437157 68.37666871 47.80944069 71 43 C83.21 43 95.42 43 108 43 C105.19180203 57.04098984 94.70028334 72.48863703 84 82 C83.34 82 82.68 82 82 82 C81.505 83.485 81.505 83.485 81 85 C72.77276997 91.15402055 63.49837234 95.24052429 54 99 C55.12277344 99.02578125 56.24554688 99.0515625 57.40234375 99.078125 C73.21168276 99.60439656 73.21168276 99.60439656 80 104 C81.11568359 104.70962891 81.11568359 104.70962891 82.25390625 105.43359375 C99.04017256 117.27771059 106.17504511 140.63948432 110 160 C110 161.65 110 163.3 110 165 C98.78 165 87.56 165 76 165 C74.05330215 159.80880572 72.72842773 156.17877934 71.8125 151 C70.25634939 143.81647234 67.15908764 137.77606718 63.7421875 131.3359375 C62 128 62 128 61 125 C59.20067421 123.93283296 59.20067421 123.93283296 57 123 C54.25 121.5 54.25 121.5 52 120 C52 119.34 52 118.68 52 118 C50.72125 117.855625 49.4425 117.71125 48.125 117.5625 C47.40570313 117.48128906 46.68640625 117.40007812 45.9453125 117.31640625 C41.6327681 116.8531223 37.31583215 116.43158322 33 116 C33 132.17 33 148.34 33 165 C27.740625 165.020625 22.48125 165.04125 17.0625 165.0625 C15.400979 165.071604 13.73945801 165.08070801 12.02758789 165.09008789 C10.73071045 165.09258545 9.43383301 165.09508301 8.09765625 165.09765625 C7.41183472 165.10277222 6.72601318 165.10788818 6.01940918 165.11315918 C4.34584769 165.11347054 2.6724042 165.06222837 1 165 C0 164 0 164 -0.12304783 161.31570339 C-0.12212604 160.10723279 -0.12120424 158.89876219 -0.12025452 157.65367126 C-0.12110894 156.98311425 -0.12196337 156.31255724 -0.12284368 155.62168032 C-0.12450037 153.35835602 -0.11897407 151.09510466 -0.11352539 148.83178711 C-0.11324353 147.21589662 -0.11340122 145.60000601 -0.1139679 143.9841156 C-0.11425593 139.5834776 -0.10835829 135.18286661 -0.10139394 130.78223491 C-0.09516134 126.1884479 -0.09455668 121.59466034 -0.09336853 117.00086975 C-0.09025494 108.29565229 -0.08204117 99.59044732 -0.07201904 90.88523537 C-0.06085877 80.97730082 -0.05534767 71.06936569 -0.05032361 61.16142642 C-0.03985858 40.77427575 -0.02151276 20.38714221 0 0 Z " fill="#080808" transform="translate(160,138)"/>
<path d="M0 0 C2.30660725 1.89981347 4.07051607 3.69533864 6 6 C6 6.66 6 7.32 6 8 C6.66 8 7.32 8 8 8 C21.13971906 28.69824678 22.80537742 50.15561921 18.4765625 73.8671875 C16.15155253 83.07664259 10.3276364 92.95901837 4 100 C3.34 100 2.68 100 2 100 C2 100.66 2 101.32 2 102 C1.34 102 0.68 102 0 102 C0 102.66 0 103.32 0 104 C-17.48583362 114.49150017 -35.25161861 118.82837817 -55.421875 114.125 C-62.7508735 111.82068606 -69.61239683 108.25840211 -76 104 C-76 103.34 -76 102.68 -76 102 C-76.58910156 101.7421875 -77.17820312 101.484375 -77.78515625 101.21875 C-85.02072031 97.2372756 -88.8109711 89.26010219 -92 82 C-92.35239746 81.20408447 -92.70479492 80.40816895 -93.06787109 79.58813477 C-96.14076751 71.97663665 -96.76934389 64.90904139 -96.9375 56.75 C-96.97125732 55.46963867 -97.00501465 54.18927734 -97.03979492 52.87011719 C-97.30745098 36.23524048 -93.954927 21.62402866 -84 8 C-83.34 8 -82.68 8 -82 8 C-81.731875 7.401875 -81.46375 6.80375 -81.1875 6.1875 C-80.00082594 4.00152146 -78.90400887 2.58667406 -77 1 C-76.34 1 -75.68 1 -75 1 C-75 0.34 -75 -0.32 -75 -1 C-72.98828125 -2.4375 -72.98828125 -2.4375 -70.3125 -4 C-69.44238281 -4.515625 -68.57226562 -5.03125 -67.67578125 -5.5625 C-46.80398752 -16.77537605 -18.94205123 -13.10937178 0 0 Z M-46.1875 15.4375 C-47.04730469 15.70433594 -47.90710938 15.97117188 -48.79296875 16.24609375 C-51.00499941 16.94663431 -51.00499941 16.94663431 -53 18 C-53 18.66 -53 19.32 -53 20 C-53.66 20 -54.32 20 -55 20 C-55 20.66 -55 21.32 -55 22 C-55.66 22 -56.32 22 -57 22 C-65.3149831 36.91619106 -66.29669183 53.7358141 -61.93359375 70.20703125 C-60.64386791 74.06541608 -59.0099407 77.46527669 -57 81 C-56.34 81 -55.68 81 -55 81 C-54.7215625 81.86625 -54.7215625 81.86625 -54.4375 82.75 C-51.86325617 86.77925122 -48.1279616 88.51904608 -43.59765625 89.54296875 C-36.53885778 90.4674647 -30.25784347 89.65040869 -24 86 C-24 85.34 -24 84.68 -24 84 C-23.39414062 83.74734375 -22.78828125 83.4946875 -22.1640625 83.234375 C-17.7618175 80.72334716 -15.71220238 75.63806548 -13.75 71.125 C-9.88553227 55.02305111 -10.75616552 38.19584114 -18.8125 23.75 C-23.55160063 17.79227349 -28.58251364 15.31600564 -36 14 C-39.71298187 13.79605592 -42.64883985 14.31861956 -46.1875 15.4375 Z " fill="#060606" transform="translate(513,190)"/>
<path d="M0 0 C1.11181641 0.7115625 1.11181641 0.7115625 2.24609375 1.4375 C13.60815526 9.23369035 20.46509981 21.50337346 23.43359375 34.734375 C26.77877805 54.02109278 23.55197931 68.72846364 13.1171875 84.921875 C3.5490829 97.81279417 -11.29302455 106.19288706 -27 109 C-42.95131402 110.87783904 -57.91306383 104.5889175 -70.4921875 95.125 C-78.7254567 88.25008161 -84.08535199 79.90524573 -88 70 C-88.391875 69.13375 -88.78375 68.2675 -89.1875 67.375 C-94.51469146 51.80320958 -90.82668041 33.03775988 -83.875 18.67578125 C-83.58625 18.12277344 -83.2975 17.56976563 -83 17 C-82.34 17 -81.68 17 -81 17 C-80.7628125 16.27425781 -80.525625 15.54851562 -80.28125 14.80078125 C-78.8010778 11.56516091 -77.03593526 9.66991715 -74.5 7.1875 C-73.7059375 6.39730469 -72.911875 5.60710937 -72.09375 4.79296875 C-70 3 -70 3 -68 3 C-68 2.34 -68 1.68 -68 1 C-46.41207461 -12.81233524 -21.84389247 -14.58354836 0 0 Z M-34 -4 C-37.38970359 4.79378021 -39.65423772 13.4642623 -41.25 22.75 C-41.41274414 23.69496338 -41.57548828 24.63992676 -41.74316406 25.61352539 C-45.26292427 47.10386596 -43.49093611 66.92552307 -39 88.125 C-38.8462793 88.87668457 -38.69255859 89.62836914 -38.53417969 90.40283203 C-37.71673963 94.05084867 -37.10424574 96.72472897 -34 99 C-34 98.34 -34 97.68 -34 97 C-33.34 97 -32.68 97 -32 97 C-31.68546875 96.20335937 -31.3709375 95.40671875 -31.046875 94.5859375 C-27.12051648 84.86465224 -27.12051648 84.86465224 -24.6875 81.4375 C-22.71539501 79.08300979 -22.71539501 79.08300979 -23 76 C-22.34 76 -21.68 76 -21 76 C-19.46982639 74.40963415 -19.46982639 74.40963415 -17.875 72.375 C-14.75927751 68.6754895 -11.49453234 65.9374622 -7.50390625 63.2265625 C-7.00761719 62.82179688 -6.51132813 62.41703125 -6 62 C-6 61.34 -6 60.68 -6 60 C-5.28199219 59.71898437 -4.56398437 59.43796875 -3.82421875 59.1484375 C-1.113488 58.04614865 1.53316344 56.85611031 4.1875 55.625 C9.39356335 53.24124545 14.66318093 51.07221391 20 49 C17.16525618 47.11017079 14.65432613 45.99512873 11.5 44.75 C-11.96523556 35.06952888 -11.96523556 35.06952888 -16 27 C-16.66 27 -17.32 27 -18 27 C-18 26.34 -18 25.68 -18 25 C-18.66 25 -19.32 25 -20 25 C-20.27070312 24.42378906 -20.54140625 23.84757812 -20.8203125 23.25390625 C-22.0102711 20.98037607 -23.37477718 19.01682437 -24.875 16.9375 C-29.19432028 10.5482854 -31.62636548 3.56179001 -33 -4 C-33.33 -4 -33.66 -4 -34 -4 Z " fill="#0305AA" transform="translate(99,169)"/>
<path d="M0 0 C1.20061105 3.60183315 1.02185426 6.77688588 0.87890625 10.51171875 C0.84348976 11.60405571 0.84348976 11.60405571 0.80735779 12.71846008 C0.7308565 15.0416784 0.6467744 17.36455193 0.5625 19.6875 C0.50926573 21.26365507 0.45652542 22.83982691 0.40429688 24.41601562 C0.27525978 28.2775616 0.13942375 32.13881566 0 36 C-0.66966797 35.85997559 -1.33933594 35.71995117 -2.02929688 35.57568359 C-2.91681641 35.39344238 -3.80433594 35.21120117 -4.71875 35.0234375 C-5.59466797 34.84216309 -6.47058594 34.66088867 -7.37304688 34.47412109 C-16.66940731 32.79628355 -23.75698168 34.85418901 -31.8125 39.6875 C-42.42116935 50.90237903 -43.16844119 66.88258142 -43.0625 81.4609375 C-43.05871338 82.64724762 -43.05492676 83.83355774 -43.05102539 85.05581665 C-43.03884559 88.82891533 -43.02019996 92.60193625 -43 96.375 C-42.97352382 101.36197687 -42.95349563 106.34891729 -42.9375 111.3359375 C-42.92920166 112.49000092 -42.92090332 113.64406433 -42.91235352 114.83309937 C-42.90739868 116.42077621 -42.90739868 116.42077621 -42.90234375 118.04052734 C-42.89710693 118.9764975 -42.89187012 119.91246765 -42.88647461 120.87680054 C-43 123 -43 123 -44 124 C-54.56 124 -65.12 124 -76 124 C-76 83.74 -76 43.48 -76 2 C-66.76 2 -57.52 2 -48 2 C-48 15.53 -48 29.06 -48 43 C-47.34 43 -46.68 43 -46 43 C-45.83564453 41.89205078 -45.83564453 41.89205078 -45.66796875 40.76171875 C-44.21922557 31.4921181 -42.67879036 22.24358302 -38 14 C-37.34 14 -36.68 14 -36 14 C-35.835 13.29875 -35.67 12.5975 -35.5 11.875 C-32.72538639 6.55699058 -27.53163916 3.38075389 -22.0625 1.125 C-15.0315038 -0.99920557 -7.25935641 -0.22503171 0 0 Z " fill="#040404" transform="translate(412,179)"/>
<path d="M0 0 C1.11181641 0.7115625 1.11181641 0.7115625 2.24609375 1.4375 C13.60815526 9.23369035 20.46509981 21.50337346 23.43359375 34.734375 C26.77877805 54.02109278 23.55197931 68.72846364 13.1171875 84.921875 C3.62194412 97.71462968 -11.3300597 106.36393528 -27 109 C-31.34800755 109.21811161 -35.65160419 109.1866561 -40 109 C-40.33 108.34 -40.66 107.68 -41 107 C-39.02 107 -37.04 107 -35 107 C-35.26554687 106.35933594 -35.53109375 105.71867187 -35.8046875 105.05859375 C-39.48208262 96.05300206 -41.31773153 88.76141881 -41 79 C-41.66 79 -42.32 79 -43 79 C-42.67 77.02 -42.34 75.04 -42 73 C-41.67 73 -41.34 73 -41 73 C-40.83395264 73.81621826 -40.83395264 73.81621826 -40.66455078 74.64892578 C-40.15517381 77.14174567 -39.64013306 79.6333635 -39.125 82.125 C-38.95097656 82.9809375 -38.77695312 83.836875 -38.59765625 84.71875 C-37.65388316 89.26284268 -36.5913141 93.62747027 -35 98 C-33.515 97.505 -33.515 97.505 -32 97 C-31.18555661 95.30489451 -31.18555661 95.30489451 -30.6875 93.1875 C-28.86052465 87.09758215 -25.93734869 81.61803585 -23 76 C-22.34 76 -21.68 76 -21 76 C-20.73960938 75.41347656 -20.47921875 74.82695312 -20.2109375 74.22265625 C-17.56614067 69.36817433 -12.66002606 64.93409048 -8 62 C-7.34 62 -6.68 62 -6 62 C-6 61.34 -6 60.68 -6 60 C10.70842825 51.3690205 10.70842825 51.3690205 19 49 C17.96101563 48.56429687 16.92203125 48.12859375 15.8515625 47.6796875 C4.42782339 42.82867975 -6.82684288 37.59706513 -16 29 C-16 28.34 -16 27.68 -16 27 C-16.66 27 -17.32 27 -18 27 C-18 26.34 -18 25.68 -18 25 C-18.66 25 -19.32 25 -20 25 C-21.55154545 23.13753582 -22.93972186 21.30191508 -24.3125 19.3125 C-24.71331787 18.73540283 -25.11413574 18.15830566 -25.52709961 17.5637207 C-29.42228095 11.73709656 -31.8289217 5.66597407 -34 -1 C-38.54388137 10.23885552 -40.11735334 22.09271392 -42 34 C-45.38478378 28.92282432 -44.72023791 22.89271441 -43.63085938 17.00488281 C-40.94276236 4.94276236 -40.94276236 4.94276236 -38 2 C-37.32348793 -0.19704511 -37.32348793 -0.19704511 -36.875 -2.625 C-36.70742188 -3.44226563 -36.53984375 -4.25953125 -36.3671875 -5.1015625 C-36.24601562 -5.72804687 -36.12484375 -6.35453125 -36 -7 C-36.57975586 -6.84152588 -37.15951172 -6.68305176 -37.75683594 -6.51977539 C-41.21220398 -5.71911382 -44.71910303 -5.62776918 -48.25 -5.4375 C-49.36761719 -5.37272461 -49.36761719 -5.37272461 -50.5078125 -5.30664062 C-52.338349 -5.20103275 -54.16915176 -5.10005799 -56 -5 C-42.74571671 -18.25428329 -12.86756507 -8.5907197 0 0 Z " fill="#0102A5" transform="translate(99,169)"/>
<path d="M0 0 C10.23 0 20.46 0 31 0 C32.22409104 2.44818208 32.1231358 4.0209856 32.12025452 6.75820923 C32.12162918 7.76224289 32.12300385 8.76627655 32.12442017 9.80073547 C32.11902725 11.45905647 32.11902725 11.45905647 32.11352539 13.15087891 C32.11367142 14.31184586 32.11381744 15.47281281 32.1139679 16.66896057 C32.11326903 20.5215133 32.10547781 24.37401818 32.09765625 28.2265625 C32.09579198 30.89171429 32.09431895 33.55686341 32.09336853 36.22201538 C32.09025745 42.52954085 32.08204706 48.83704904 32.07201904 55.14456689 C32.06085098 62.32464355 32.0553457 69.50472102 32.05032361 76.6848042 C32.03986427 91.45654498 32.02226914 106.22827219 32 121 C21.87577163 124.37474279 10.67187373 122 0 122 C0 81.74 0 41.48 0 0 Z " fill="#070707" transform="translate(283,181)"/>
<path d="M0 0 C3.40253772 2.03865129 6.76441626 4.14040196 8.01953125 8.07421875 C9.36762034 15.09184138 8.72767569 20.94382992 5.4375 27.25 C4.7775 27.25 4.1175 27.25 3.4375 27.25 C2.9425 28.735 2.9425 28.735 2.4375 30.25 C-3.07978327 33.45358383 -10.6602705 33.89686072 -16.8125 32.5625 C-25.15312281 29.64328202 -25.15312281 29.64328202 -27.59765625 25.4921875 C-29.88352593 20.06989198 -30.61850262 14.82978248 -28.94140625 9.14453125 C-27.00023662 4.54611608 -24.4175169 1.5140981 -20.03515625 -0.90234375 C-13.57094086 -3.1183544 -6.20151918 -2.90949778 0 0 Z " fill="#090909" transform="translate(309.5625,132.75)"/>
<path d="M0 0 C-0.33 0.99 -0.66 1.98 -1 3 C-4.1698627 2.29558607 -7.13462272 1.54885258 -10 0 C-10.8125 -2.625 -10.8125 -2.625 -11 -5 C-12.3921875 -4.938125 -12.3921875 -4.938125 -13.8125 -4.875 C-18.9731635 -4.8537627 -23.96162598 -5.97956982 -29 -7 C-28.67 -6.01 -28.34 -5.02 -28 -4 C-28.9375 -0.8125 -28.9375 -0.8125 -30 2 C-30.66 1.34 -31.32 0.68 -32 0 C-36.54388137 11.23885552 -38.11735334 23.09271392 -40 35 C-43.38478378 29.92282432 -42.72023791 23.89271441 -41.63085938 18.00488281 C-38.94276236 5.94276236 -38.94276236 5.94276236 -36 3 C-35.32348793 0.80295489 -35.32348793 0.80295489 -34.875 -1.625 C-34.70742188 -2.44226563 -34.53984375 -3.25953125 -34.3671875 -4.1015625 C-34.24601562 -4.72804687 -34.12484375 -5.35453125 -34 -6 C-34.57975586 -5.84152588 -35.15951172 -5.68305176 -35.75683594 -5.51977539 C-39.21220398 -4.71911382 -42.71910303 -4.62776918 -46.25 -4.4375 C-47.36761719 -4.37272461 -47.36761719 -4.37272461 -48.5078125 -4.30664062 C-50.338349 -4.20103275 -52.16915176 -4.10005799 -54 -4 C-41.5951621 -16.4048379 -12.21319529 -8.51891049 0 0 Z " fill="#292D80" transform="translate(97,168)"/>
<path d="M0 0 C7.44057778 8.87465562 7.25741698 23.27749074 6.890625 34.28125 C5.51051452 47.55659843 -1.79915441 60.49313959 -11 70 C-12.485 70.99 -12.485 70.99 -14 72 C-14.33 71.01 -14.66 70.02 -15 69 C-14.01 69 -13.02 69 -12 69 C-12 67.35 -12 65.7 -12 64 C-11.401875 63.79375 -10.80375 63.5875 -10.1875 63.375 C-7.18981233 61.49073918 -6.38638224 59.18867916 -5 56 C-4.34 56 -3.68 56 -3 56 C-3.061875 54.96875 -3.12375 53.9375 -3.1875 52.875 C-2.98864405 48.76531027 -2.05532197 46.51117504 0 43 C0.66 43 1.32 43 2 43 C1.69217504 41.35328588 1.37860766 39.70764424 1.0625 38.0625 C0.88847656 37.14597656 0.71445313 36.22945312 0.53515625 35.28515625 C0.22285012 33.04710156 0.22285012 33.04710156 -1 32 C-3.32817964 31.63239269 -5.6618385 31.29758419 -8 31 C-5.01353231 29.00902154 -2.40312738 28.05875074 1 27 C-0.32 26.01 -1.64 25.02 -3 24 C-0.69 24.33 1.62 24.66 4 25 C3.855625 24.14277344 3.71125 23.28554687 3.5625 22.40234375 C2.61141112 16.54390042 1.7238059 10.93817322 2 5 C1.34 5 0.68 5 0 5 C0 3.35 0 1.7 0 0 Z " fill="#050487" transform="translate(117,191)"/>
<path d="M0 0 C0.33 0 0.66 0 1 0 C1.11069824 0.54414551 1.22139648 1.08829102 1.33544922 1.64892578 C1.84482619 4.14174567 2.35986694 6.6333635 2.875 9.125 C3.04902344 9.9809375 3.22304688 10.836875 3.40234375 11.71875 C4.34611684 16.26284268 5.4086859 20.62747027 7 25 C10.11332248 24.33131686 10.11332248 24.33131686 11.1875 21.9375 C11.455625 21.298125 11.72375 20.65875 12 20 C12.66 20.33 13.32 20.66 14 21 C14.33333333 23 14.66666667 25 15 27 C15.66 27.33 16.32 27.66 17 28 C17 29.32 17 30.64 17 32 C20.63 31.67 24.26 31.34 28 31 C28 30.34 28 29.68 28 29 C29.65 29 31.3 29 33 29 C24.61441682 36.15542428 12.5008107 36.62795546 2 36 C1.67 35.34 1.34 34.68 1 34 C2.98 34 4.96 34 7 34 C6.73445313 33.35933594 6.46890625 32.71867187 6.1953125 32.05859375 C2.51791738 23.05300206 0.68226847 15.76141881 1 6 C0.34 6 -0.32 6 -1 6 C-0.67 4.02 -0.34 2.04 0 0 Z " fill="#3E418F" transform="translate(57,242)"/>
<path d="M0 0 C0 0.66 0 1.32 0 2 C-0.99 2 -1.98 2 -3 2 C-2.979375 2.7425 -2.95875 3.485 -2.9375 4.25 C-4 7 -4 7 -5.96484375 8.046875 C-7.59342833 8.69091817 -9.22234347 9.33412597 -10.8515625 9.9765625 C-13.80717207 11.38450742 -14.61215487 13.08552524 -16 16 C-18.99672578 19.94306024 -21.5774724 22.72555723 -26 25 C-26.66666667 23.66666667 -27.33333333 22.33333333 -28 21 C-27.34 21 -26.68 21 -26 21 C-25.73960938 20.41347656 -25.47921875 19.82695312 -25.2109375 19.22265625 C-22.56614067 14.36817433 -17.66002606 9.93409048 -13 7 C-12.34 7 -11.68 7 -11 7 C-11 6.34 -11 5.68 -11 5 C-9.54462432 4.16151196 -8.08559627 3.32936066 -6.625 2.5 C-5.81289062 2.0359375 -5.00078125 1.571875 -4.1640625 1.09375 C-2 0 -2 0 0 0 Z " fill="#14186C" transform="translate(104,224)"/>
<path d="M0 0 C2 2 2 2 3.25 4.9375 C4.75403529 8.23488245 4.75403529 8.23488245 8.0625 9.5 C11.90038384 11.45977047 11.7046602 13.03302186 13 17 C14.96918846 18.37843192 16.96664791 19.71810412 19 21 C19 21.99 19 22.98 19 24 C20.65 24.33 22.3 24.66 24 25 C22.02 25.99 22.02 25.99 20 27 C10.89451607 20.53681725 5.13833427 13.20750141 -1 4 C-0.625 1.8125 -0.625 1.8125 0 0 Z " fill="#242488" transform="translate(14,241)"/>
<path d="M0 0 C6.80476021 8.11629221 7.04189392 20.86167189 7 31 C6.55423191 35.38635798 5.88127516 39.68102338 5 44 C4.67 44 4.34 44 4 44 C4 38.72 4 33.44 4 28 C3.01 27.67 2.02 27.34 1 27 C-0.35622245 26.03126968 -1.69417053 25.03565785 -3 24 C-0.69 24.33 1.62 24.66 4 25 C3.855625 24.14277344 3.71125 23.28554687 3.5625 22.40234375 C2.61141112 16.54390042 1.7238059 10.93817322 2 5 C1.34 5 0.68 5 0 5 C0 3.35 0 1.7 0 0 Z " fill="#52528E" transform="translate(117,191)"/>
<path d="M0 0 C-1.25125384 3.75376152 -2.5652404 4.24073289 -6 6 C-6.66 6 -7.32 6 -8 6 C-8.268125 6.639375 -8.53625 7.27875 -8.8125 7.9375 C-10 10 -10 10 -13 11 C-13.33 11.99 -13.66 12.98 -14 14 C-14.99 14.66 -15.98 15.32 -17 16 C-17.28875 16.61875 -17.5775 17.2375 -17.875 17.875 C-19.37003693 20.69895864 -21.45502944 22.12475853 -24 24 C-24.33 23.01 -24.66 22.02 -25 21 C-24.67 20.34 -24.34 19.68 -24 19 C-23.34 19 -22.68 19 -22 19 C-21.64421875 17.91138672 -21.64421875 17.91138672 -21.28125 16.80078125 C-19.8010778 13.56516091 -18.03593526 11.66991715 -15.5 9.1875 C-14.7059375 8.39730469 -13.911875 7.60710937 -13.09375 6.79296875 C-11 5 -11 5 -9 5 C-9 4.34 -9 3.68 -9 3 C-5.63316085 0.56839395 -4.26649636 0 0 0 Z " fill="#151869" transform="translate(40,167)"/>
<path d="M0 0 C0.33 0 0.66 0 1 0 C1.39277524 4.97515305 0.26078502 8.95930444 -1.24609375 13.6328125 C-2.63996046 18.00940954 -3.11949538 21.66697965 -3.09765625 26.296875 C-3.09443359 27.50214844 -3.09121094 28.70742187 -3.08789062 29.94921875 C-3.07951172 31.20347656 -3.07113281 32.45773438 -3.0625 33.75 C-3.05798828 35.01972656 -3.05347656 36.28945312 -3.04882812 37.59765625 C-3.03704556 40.73181836 -3.02059416 43.86588541 -3 47 C-8.04032659 39.43951011 -6.6967105 26.13810772 -5.69140625 17.28125 C-4.47420116 11.335257 -2.17559714 5.65021588 0 0 Z " fill="#353682" transform="translate(14,190)"/>
<path d="M0 0 C0.763125 0.639375 1.52625 1.27875 2.3125 1.9375 C4.88246713 4.14232781 4.88246713 4.14232781 8 5 C8 6.65 8 8.3 8 10 C8.66 10.33 9.32 10.66 10 11 C10 11.66 10 12.32 10 13 C10.99 13.33 11.98 13.66 13 14 C13.268125 14.969375 13.53625 15.93875 13.8125 16.9375 C14.204375 17.948125 14.59625 18.95875 15 20 C18.01779872 21.45160938 18.01779872 21.45160938 21 22 C20.34 22.33 19.68 22.66 19 23 C18.67 23.66 18.34 24.32 18 25 C15.95880212 23.38405168 13.95927063 21.7143618 12 20 C12 19.34 12 18.68 12 18 C11.34 18 10.68 18 10 18 C10 17.34 10 16.68 10 16 C9.34 16 8.68 16 8 16 C6.3359207 13.92802914 4.81438893 11.87185469 3.3125 9.6875 C2.88388672 9.09259766 2.45527344 8.49769531 2.01367188 7.88476562 C0.92301365 6.31288299 -0.04744898 4.65921576 -1 3 C-0.67 2.01 -0.34 1.02 0 0 Z " fill="#333392" transform="translate(71,178)"/>
<path d="M0 0 C6.17226452 2.11620498 10.1413902 5.85062381 14.1875 10.875 C14.86167969 11.69742188 15.53585938 12.51984375 16.23046875 13.3671875 C18.11747215 16.17478197 19.07865905 18.75876979 20 22 C19.34 22.66 18.68 23.32 18 24 C18 22.68 18 21.36 18 20 C16.68 19.67 15.36 19.34 14 19 C13.34 16.69 12.68 14.38 12 12 C11.38125 11.9175 10.7625 11.835 10.125 11.75 C7.32494581 10.76174558 7.25886068 9.59640015 6 7 C5.34 6.690625 4.68 6.38125 4 6.0625 C1.25013332 4.60163333 0.91166696 2.88694538 0 0 Z " fill="#303285" transform="translate(97,169)"/>
<path d="M0 0 C0.35729936 1.32711192 0.68325425 2.66262906 1 4 C1.21527344 4.89976562 1.43054687 5.79953125 1.65234375 6.7265625 C2.09140434 10.86063865 1.42037954 14.33749033 0.5625 18.375 C0.41490234 19.11105469 0.26730469 19.84710938 0.11523438 20.60546875 C-0.2471219 22.40556123 -0.62226109 24.20307253 -1 26 C-4.13224464 21.30163304 -3.45013275 16.50597158 -3 11 C-2.21717678 7.25330852 -1.20139528 3.63279048 0 0 Z " fill="#1F2095" transform="translate(58,177)"/>
<path d="M0 0 C7.84372163 0.96794863 13.47974599 3.58842388 20 8 C19.67 8.99 19.34 9.98 19 11 C15.8301373 10.29558607 12.86537728 9.54885258 10 8 C9.1875 5.375 9.1875 5.375 9 3 C6.69 3 4.38 3 2 3 C2 2.34 2 1.68 2 1 C1.34 0.67 0.68 0.34 0 0 Z " fill="#1D2287" transform="translate(77,160)"/>
<path d="M0 0 C0 0.66 0 1.32 0 2 C-0.99 2 -1.98 2 -3 2 C-3.05027344 2.76699219 -3.10054687 3.53398437 -3.15234375 4.32421875 C-4 7 -4 7 -6.50390625 8.58203125 C-7.51324219 8.98808594 -8.52257812 9.39414063 -9.5625 9.8125 C-10.57441406 10.23144531 -11.58632812 10.65039062 -12.62890625 11.08203125 C-13.41136719 11.38496094 -14.19382812 11.68789062 -15 12 C-15.66 11.34 -16.32 10.68 -17 10 C-13.25 7 -13.25 7 -11 7 C-11 6.34 -11 5.68 -11 5 C-9.54462432 4.16151196 -8.08559627 3.32936066 -6.625 2.5 C-5.40683594 1.80390625 -5.40683594 1.80390625 -4.1640625 1.09375 C-2 0 -2 0 0 0 Z " fill="#333785" transform="translate(104,224)"/>
<path d="M0 0 C0.66 0.33 1.32 0.66 2 1 C1.01 2.485 1.01 2.485 0 4 C-0.66 4 -1.32 4 -2 4 C-2.66 6.97 -3.32 9.94 -4 13 C-4.99 13 -5.98 13 -7 13 C-9.68767578 15.43750025 -9.68767578 15.43750025 -12 18 C-12.375 15.25 -12.375 15.25 -12 12 C-9.1875 9.9375 -9.1875 9.9375 -6 8 C-4.30117552 5.50240018 -4.30117552 5.50240018 -3 3 C-1.3125 1.1875 -1.3125 1.1875 0 0 Z " fill="#0308A5" transform="translate(27,178)"/>
<path d="M0 0 C0.33 0 0.66 0 1 0 C1.33 4.29 1.66 8.58 2 13 C-9.25 12.33035714 -9.25 12.33035714 -13 9 C-9.535 8.505 -9.535 8.505 -6 8 C-6 8.66 -6 9.32 -6 10 C-4.02 9.34 -2.04 8.68 0 8 C0 5.36 0 2.72 0 0 Z " fill="#040294" transform="translate(119,203)"/>
<path d="M0 0 C-1.38952413 4.01018103 -3.26698294 6.90032723 -5.9375 10.1875 C-6.62714844 11.04730469 -7.31679687 11.90710938 -8.02734375 12.79296875 C-10 15 -10 15 -13 17 C-13.33 16.01 -13.66 15.02 -14 14 C-13.01 14 -12.02 14 -11 14 C-11 12.35 -11 10.7 -11 9 C-10.401875 8.79375 -9.80375 8.5875 -9.1875 8.375 C-6.19884959 6.49641974 -5.4721632 4.14507592 -4 1 C-2 0 -2 0 0 0 Z " fill="#50549A" transform="translate(116,246)"/>
<path d="M0 0 C0.70189453 0.00451172 1.40378906 0.00902344 2.12695312 0.01367188 C3.85550538 0.02543073 5.58401365 0.04336546 7.3125 0.0625 C7.3125 1.3825 7.3125 2.7025 7.3125 4.0625 C5.9925 4.3925 4.6725 4.7225 3.3125 5.0625 C2.9825 3.7425 2.6525 2.4225 2.3125 1.0625 C-1.9775 2.0525 -6.2675 3.0425 -10.6875 4.0625 C-10.6875 3.0725 -10.6875 2.0825 -10.6875 1.0625 C-7.06882441 -0.1437252 -3.76243749 -0.04566918 0 0 Z " fill="#02048E" transform="translate(53.6875,162.9375)"/>
<path d="M0 0 C6.02900687 0.51241107 12.02004643 1.069785 18 2 C18.33 2.99 18.66 3.98 19 5 C8.44191344 4.03644647 8.44191344 4.03644647 4 3 C3.67 3.66 3.34 4.32 3 5 C2.67 4.01 2.34 3.02 2 2 C1.34 1.34 0.68 0.68 0 0 Z " fill="#03088B" transform="translate(68,161)"/>
<path d="M0 0 C5.32309066 0.51932592 8.51979426 2.26209649 13 5 C14.32646156 5.6802367 15.65608877 6.35492261 17 7 C15.3515625 8.16796875 15.3515625 8.16796875 13 9 C10.2734375 7.98828125 10.2734375 7.98828125 7.375 6.3125 C6.41335937 5.77238281 5.45171875 5.23226562 4.4609375 4.67578125 C2 3 2 3 0 0 Z " fill="#21228D" transform="translate(91,203)"/>
<path d="M0 0 C0.66 0 1.32 0 2 0 C2.33 1.32 2.66 2.64 3 4 C4.65 4.33 6.3 4.66 8 5 C8 6.32 8 7.64 8 9 C5.36 8.67 2.72 8.34 0 8 C0 6.35 0 4.7 0 3 C-0.66 3 -1.32 3 -2 3 C-1 1 -1 1 0 0 Z " fill="#2D2E7A" transform="translate(65,266)"/>
<path d="M0 0 C4.59688024 5.43267665 5.29960608 10.94448182 5.125 17.875 C5.11597656 18.56335938 5.10695313 19.25171875 5.09765625 19.9609375 C5.07432513 21.64077838 5.03846326 23.32043746 5 25 C4.67 25 4.34 25 4 25 C1.70387244 11.3667426 1.70387244 11.3667426 2 5 C1.34 5 0.68 5 0 5 C0 3.35 0 1.7 0 0 Z " fill="#393A91" transform="translate(117,191)"/>
<path d="M0 0 C4.29 0 8.58 0 13 0 C12.34 1.32 11.68 2.64 11 4 C11.33 4.66 11.66 5.32 12 6 C7.24518354 5.42365861 4.02951788 3.44931479 0 1 C0 0.67 0 0.34 0 0 Z " fill="#2F3099" transform="translate(36,268)"/>
<path d="M0 0 C0.763125 0.639375 1.52625 1.27875 2.3125 1.9375 C4.88246713 4.14232781 4.88246713 4.14232781 8 5 C7.67 6.98 7.34 8.96 7 11 C2.79609368 9.49860488 1.10889262 6.82724957 -1 3 C-0.67 2.01 -0.34 1.02 0 0 Z " fill="#131386" transform="translate(71,178)"/>
<path d="M0 0 C0.99 0.66 1.98 1.32 3 2 C2.690625 2.598125 2.38125 3.19625 2.0625 3.8125 C0.89790296 6.08956772 0.89790296 6.08956772 0 9 C-3.0625 10.6875 -3.0625 10.6875 -6 12 C-4.68139111 7.38486888 -2.78644563 3.90102388 0 0 Z " fill="#27296F" transform="translate(75,248)"/>
<path d="M0 0 C1.32 0.66 2.64 1.32 4 2 C3.66666667 3.33333333 3.33333333 4.66666667 3 6 C2.835 6.70125 2.67 7.4025 2.5 8.125 C2 10 2 10 1 12 C0.34 11.67 -0.32 11.34 -1 11 C-1.02688151 9.35425434 -1.04634123 7.70838587 -1.0625 6.0625 C-1.07410156 5.14597656 -1.08570313 4.22945312 -1.09765625 3.28515625 C-1 1 -1 1 0 0 Z " fill="#030498" transform="translate(12,226)"/>
<path d="M0 0 C0.33 0 0.66 0 1 0 C1.45496035 5.76283104 -0.20900148 10.60568303 -2 16 C-2.99 16 -3.98 16 -5 16 C-3.90301833 10.30860098 -2.45946923 5.25432063 0 0 Z " fill="#434479" transform="translate(14,190)"/>
<path d="M0 0 C0.33 0 0.66 0 1 0 C0.5547115 5.27315333 -0.08373163 10.01770224 -2 15 C-2.33 15 -2.66 15 -3 15 C-2.88623383 12.87436897 -2.75864369 10.7494739 -2.625 8.625 C-2.55539063 7.44164062 -2.48578125 6.25828125 -2.4140625 5.0390625 C-2 2 -2 2 0 0 Z " fill="#191B79" transform="translate(61,171)"/>
<path d="M0 0 C0.66 0.99 1.32 1.98 2 3 C3.32 2.01 4.64 1.02 6 0 C4.49776416 4.20626034 1.71449966 5.73900021 -2 8 C-2.66666667 6.66666667 -3.33333333 5.33333333 -4 4 C-3.34 4 -2.68 4 -2 4 C-1.34 2.68 -0.68 1.36 0 0 Z " fill="#343689" transform="translate(80,241)"/>
<path d="M0 0 C0 0.66 0 1.32 0 2 C-4.32734391 4.22923777 -7.28400182 3.92470553 -12 3 C-7.58119757 0.05413171 -5.32232661 -0.0985616 0 0 Z " fill="#2E2F81" transform="translate(121,219)"/>
<path d="M0 0 C3 1 3 1 4 2 C4.99 2 5.98 2 7 2 C7.33 2.99 7.66 3.98 8 5 C7.38125 5.12375 6.7625 5.2475 6.125 5.375 C3.80879168 5.87197356 3.80879168 5.87197356 2 8 C0 2.25 0 2.25 0 0 Z " fill="#060FAE" transform="translate(68,162)"/>
<path d="M0 0 C0.33 0.66 0.66 1.32 1 2 C0.22265625 4.1640625 0.22265625 4.1640625 -0.9375 6.625 C-1.31777344 7.44226563 -1.69804688 8.25953125 -2.08984375 9.1015625 C-2.39019531 9.72804687 -2.69054687 10.35453125 -3 11 C-3.33 11 -3.66 11 -4 11 C-4.49230769 4.6 -4.49230769 4.6 -2 1.5625 C-1.34 1.046875 -0.68 0.53125 0 0 Z " fill="#525298" transform="translate(120,235)"/>
<path d="M0 0 C0.33 0.66 0.66 1.32 1 2 C1.66 2 2.32 2 3 2 C1.77065985 5.68802044 0.06140622 6.72356973 -3 9 C-3.33 8.01 -3.66 7.02 -4 6 C-3.67 5.34 -3.34 4.68 -3 4 C-2.34 4 -1.68 4 -1 4 C-0.67 2.68 -0.34 1.36 0 0 Z " fill="#343675" transform="translate(19,182)"/>
<path d="M0 0 C1.58560393 0.25720674 3.16845924 0.53138799 4.75 0.8125 C5.63171875 0.96332031 6.5134375 1.11414063 7.421875 1.26953125 C10.1910911 2.05414248 11.8259401 3.14595359 14 5 C12.68 5.33 11.36 5.66 10 6 C9.67 5.01 9.34 4.02 9 3 C6.69 3 4.38 3 2 3 C2 2.34 2 1.68 2 1 C1.34 0.67 0.68 0.34 0 0 Z " fill="#616D9F" transform="translate(77,160)"/>
<path d="M0 0 C0.66 0.66 1.32 1.32 2 2 C-2.00200378 3.60080151 -5.04556236 2.29279692 -9 1 C-5.66429909 -1.10025613 -3.74952434 -1.18406032 0 0 Z " fill="#3B3CA1" transform="translate(57,274)"/>
<path d="M0 0 C0.66 0.33 1.32 0.66 2 1 C1.67 1.99 1.34 2.98 1 4 C-1.31 4.33 -3.62 4.66 -6 5 C-6 4.34 -6 3.68 -6 3 C-4.03533587 1.93224776 -2.03144641 0.93446535 0 0 Z " fill="#0B0D9B" transform="translate(92,266)"/>
<path d="M0 0 C2.49415272 0.99766109 3.78740335 1.68616685 5.3125 3.9375 C6 6 6 6 5 9 C0 3.375 0 3.375 0 0 Z " fill="#4B4D91" transform="translate(19,251)"/>
<path d="M0 0 C1.13732426 3.40401948 0.83989957 5.77456664 0.0625 9.25 C-0.13214844 10.14203125 -0.32679687 11.0340625 -0.52734375 11.953125 C-0.68332031 12.62859375 -0.83929688 13.3040625 -1 14 C-1.33 14 -1.66 14 -2 14 C-3.125 6.375 -3.125 6.375 -2 3 C-1.34 3 -0.68 3 0 3 C0 2.01 0 1.02 0 0 Z " fill="#7A7DAE" transform="translate(59,183)"/>
<path d="M0 0 C2.475 0.495 2.475 0.495 5 1 C5 2.32 5 3.64 5 5 C3.35 5 1.7 5 0 5 C0 3.35 0 1.7 0 0 Z " fill="#28387D" transform="translate(68,270)"/>
<path d="M0 0 C5.53846154 0.61538462 5.53846154 0.61538462 7.875 2.5625 C8.431875 3.2740625 8.431875 3.2740625 9 4 C8.67 4.66 8.34 5.32 8 6 C1.125 2.25 1.125 2.25 0 0 Z " fill="#49499D" transform="translate(91,203)"/>
<path d="M0 0 C-1 3 -1 3 -3 4 C-4.99960012 4.039992 -7.00047242 4.04346799 -9 4 C-4.5 0 -4.5 0 0 0 Z " fill="#262777" transform="translate(40,167)"/>
<path d="M0 0 C0.66 0 1.32 0 2 0 C2.33 0.99 2.66 1.98 3 3 C2.67 3.66 2.34 4.32 2 5 C-0.64 4.67 -3.28 4.34 -6 4 C-5.38125 3.71125 -4.7625 3.4225 -4.125 3.125 C-1.86674235 2.06279958 -1.86674235 2.06279958 0 0 Z " fill="#020195" transform="translate(42,264)"/>
<path d="M0 0 C0 0.66 0 1.32 0 2 C0.66 2.33 1.32 2.66 2 3 C-0.25 3.6875 -0.25 3.6875 -3 4 C-5.3125 2.5625 -5.3125 2.5625 -7 1 C-4.50935112 0.31292445 -2.62113708 0 0 0 Z " fill="#37379C" transform="translate(113,211)"/>
<path d="M0 0 C0.66 0 1.32 0 2 0 C2 0.66 2 1.32 2 2 C3.98 2.66 5.96 3.32 8 4 C7.01 4.495 7.01 4.495 6 5 C5.67 5.66 5.34 6.32 5 7 C3.02 5.35 1.04 3.7 -1 2 C-0.67 1.34 -0.34 0.68 0 0 Z " fill="#404095" transform="translate(84,196)"/>
<path d="M0 0 C0.33 0.66 0.66 1.32 1 2 C0.22265625 3.7265625 0.22265625 3.7265625 -0.9375 5.625 C-1.618125 6.73875 -2.29875 7.8525 -3 9 C-3.33 9 -3.66 9 -4 9 C-4.25 6.1875 -4.25 6.1875 -4 3 C-2 1.125 -2 1.125 0 0 Z " fill="#02047A" transform="translate(19,187)"/>
<path d="M0 0 C-0.8125 2.4375 -0.8125 2.4375 -2 5 C-2.99 5.33 -3.98 5.66 -5 6 C-4.625 3.5625 -4.625 3.5625 -4 1 C-2 0 -2 0 0 0 Z " fill="#42438C" transform="translate(116,246)"/>
<path d="M0 0 C0.33 0.66 0.66 1.32 1 2 C-0.65 2.66 -2.3 3.32 -4 4 C-2.68 2.68 -1.36 1.36 0 0 Z M-4 4 C-4.33 4.99 -4.66 5.98 -5 7 C-6.32 6.67 -7.64 6.34 -9 6 C-6 4 -6 4 -4 4 Z " fill="#0104B1" transform="translate(90,265)"/>
<path d="M0 0 C2.22189824 2.22189824 2.92598892 4.08482708 4 7 C3.34 7.66 2.68 8.32 2 9 C-1.07692308 4.56923077 -1.07692308 4.56923077 -0.6875 1.6875 C-0.460625 1.130625 -0.23375 0.57375 0 0 Z " fill="#515396" transform="translate(14,241)"/>
<path d="M0 0 C1.98 0 3.96 0 6 0 C6.33 0.99 6.66 1.98 7 3 C6.01 3 5.02 3 4 3 C3.67 3.66 3.34 4.32 3 5 C2.67 4.01 2.34 3.02 2 2 C1.34 1.34 0.68 0.68 0 0 Z " fill="#051498" transform="translate(68,161)"/>
<path d="M0 0 C0.33 0.99 0.66 1.98 1 3 C0.01 3.495 0.01 3.495 -1 4 C-1 4.66 -1 5.32 -1 6 C-1.99 5.67 -2.98 5.34 -4 5 C-3.6875 3.0625 -3.6875 3.0625 -3 1 C-2.01 0.67 -1.02 0.34 0 0 Z " fill="#080990" transform="translate(104,257)"/>
<path d="M0 0 C2.64 0.33 5.28 0.66 8 1 C8 1.99 8 2.98 8 4 C4.64404172 3.40072174 2.62198774 2.15377564 0 0 Z " fill="#4B4D9A" transform="translate(114,215)"/>
<path d="M0 0 C1.32 1.32 2.64 2.64 4 4 C3.67 4.99 3.34 5.98 3 7 C1.68 5.68 0.36 4.36 -1 3 C-0.67 2.01 -0.34 1.02 0 0 Z " fill="#464695" transform="translate(71,178)"/>
<path d="M0 0 C2.5654594 2.5654594 2.54046087 4.47686668 3 8 C2.01 8.495 2.01 8.495 1 9 C0.63877119 7.68942607 0.28619689 6.37646376 -0.0625 5.0625 C-0.35833984 3.96615234 -0.35833984 3.96615234 -0.66015625 2.84765625 C-0.77230469 2.23792969 -0.88445312 1.62820312 -1 1 C-0.67 0.67 -0.34 0.34 0 0 Z " fill="#353B80" transform="translate(68,169)"/>
</svg>
